<svg width="32" height="32" viewBox="0 0 32 32" fill="none" xmlns="http://www.w3.org/2000/svg">
<circle cx="16" cy="16" r="14" stroke="#FAFAFA" stroke-width="4"/>
<path d="M16.14 23.2C14.8733 23.2 13.7867 22.9933 12.88 22.58C11.9867 22.1667 11.2867 21.56 10.78 20.76C10.2867 19.96 10.0133 18.9667 9.96 17.78C9.94667 17.2333 9.94 16.6467 9.94 16.02C9.94 15.3933 9.94667 14.7933 9.96 14.22C10.0133 13.06 10.2933 12.08 10.8 11.28C11.3067 10.4667 12.0133 9.85333 12.92 9.44C13.8267 9.01333 14.9 8.8 16.14 8.8C17.02 8.8 17.8333 8.91333 18.58 9.14C19.3267 9.35333 19.98 9.67333 20.54 10.1C21.1 10.5133 21.5333 11.02 21.84 11.62C22.16 12.2067 22.3267 12.8733 22.34 13.62C22.3533 13.74 22.3133 13.84 22.22 13.92C22.14 14 22.04 14.04 21.92 14.04H19.22C19.0467 14.04 18.9133 14.0067 18.82 13.94C18.7267 13.86 18.6467 13.72 18.58 13.52C18.3933 12.8133 18.0867 12.3333 17.66 12.08C17.2467 11.8133 16.7333 11.68 16.12 11.68C15.3867 11.68 14.8067 11.8867 14.38 12.3C13.9533 12.7 13.72 13.3733 13.68 14.32C13.64 15.4133 13.64 16.5333 13.68 17.68C13.72 18.6267 13.9533 19.3067 14.38 19.72C14.8067 20.12 15.3867 20.32 16.12 20.32C16.7333 20.32 17.2533 20.1867 17.68 19.92C18.1067 19.6533 18.4067 19.1733 18.58 18.48C18.6333 18.28 18.7067 18.1467 18.8 18.08C18.9067 18 19.0467 17.96 19.22 17.96H21.92C22.04 17.96 22.14 18 22.22 18.08C22.3133 18.16 22.3533 18.26 22.34 18.38C22.3267 19.1267 22.16 19.8 21.84 20.4C21.5333 20.9867 21.1 21.4933 20.54 21.92C19.98 22.3333 19.3267 22.6533 18.58 22.88C17.8333 23.0933 17.02 23.2 16.14 23.2Z" fill="#FAFAFA"/>
<line x1="16" y1="8" x2="16" y2="9.5" stroke="#FAFAFA" stroke-width="2" stroke-linecap="round"/>
<line x1="16" y1="23" x2="16" y2="24.5" stroke="#FAFAFA" stroke-width="2" stroke-linecap="round"/>
</svg>
